<?xml version="1.0" encoding="utf-8"?>
<!-- Generator: Adobe Illustrator 17.1.0, SVG Export Plug-In . SVG Version: 6.00 Build 0)  -->
<!DOCTYPE svg PUBLIC "-//W3C//DTD SVG 1.1//EN" "http://www.w3.org/Graphics/SVG/1.1/DTD/svg11.dtd">
<svg version="1.1" xmlns="http://www.w3.org/2000/svg" xmlns:xlink="http://www.w3.org/1999/xlink" x="0px" y="0px"
	 viewBox="0 0 1025.3 573.5" enable-background="new 0 0 1025.3 573.5" xml:space="preserve">
<g id="Layer_1">
	<polygon fill="#F0F0F0" points="0,0 1023.5,0 1023.5,42.9 0,128.6 	"/>
	<polygon fill="#DDDDDD" points="1023.5,573.5 0,573.5 0,414.1 1023.5,520.9 	"/>
	<polygon fill="#E1E1E1" points="0,414.8 1023.5,520.9 1023.5,287.9 0,359.6 	"/>
	<polygon fill="#E6E6E6" points="0,361.8 1023.5,289.4 1023.5,265.5 0,185.6 	"/>
	<polygon fill="#EBEBEB" points="0,185.6 1023.5,265.5 1023.5,42.9 0,128.6 	"/>
</g>
<g id="Layer_2" display="none">
	<rect x="0.1" y="58.8" display="inline" opacity="0.12" width="1024.6" height="3.1"/>
	<rect display="inline" fill="#F2784B" width="1025.3" height="58.7"/>
	<rect display="inline" fill="#F3855A" width="1024.7" height="30.6"/>
	
		<text transform="matrix(1 0 0 1 30.5198 40.2303)" display="inline" fill="#FFFFFF" font-family="'Gotham-Black'" font-size="24.0154">MY CURRENT OPPORTUNITY</text>
	<path display="inline" fill="#FFFFFF" d="M917.5,389.5c0,3.9-3.1,7-7,7h-827c-3.9,0-7-3.1-7-7v-269c0-3.9,3.1-7,7-7h827
		c3.9,0,7,3.1,7,7V389.5z"/>
	<path display="inline" fill="#048765" d="M995,540.4c0,2.7-2.2,4.8-4.8,4.8H879.8c-2.7,0-4.8-2.2-4.8-4.8v-26.1
		c0-2.7,2.2-4.8,4.8-4.8h110.3c2.7,0,4.8,2.2,4.8,4.8V540.4z"/>
	<path display="inline" fill="#049372" d="M995,536.3c0,2.7-2.2,4.8-4.8,4.8H879.8c-2.7,0-4.8-2.2-4.8-4.8v-26.1
		c0-2.7,2.2-4.8,4.8-4.8h110.3c2.7,0,4.8,2.2,4.8,4.8V536.3z"/>
	
		<text transform="matrix(1 0 0 1 899.1934 530.2676)" display="inline" fill="#FFFFFF" font-family="'Gotham-Black'" font-size="17.4193">SUBMIT</text>
</g>
<g id="Layer_4">
	<rect x="0.1" y="58.8" display="none" opacity="0.12" width="1024.6" height="3.1"/>
	<rect display="none" fill="#F2784B" width="1025.3" height="58.7"/>
	<rect display="none" fill="#F3855A" width="1024.7" height="30.6"/>
	
		<text transform="matrix(1 0 0 1 30.5198 40.2303)" display="none" fill="#FFFFFF" font-family="'Gotham-Black'" font-size="24.0154">MY CURRENT OPPORTUNITY</text>
</g>
<g id="Layer_3">
</g>
</svg>
