<?xml version="1.0" encoding="utf-8"?>
<!-- Generator: Adobe Illustrator 18.1.0, SVG Export Plug-In . SVG Version: 6.00 Build 0)  -->
<!DOCTYPE svg PUBLIC "-//W3C//DTD SVG 1.1//EN" "http://www.w3.org/Graphics/SVG/1.1/DTD/svg11.dtd">
<svg version="1.1" id="Layer_1" xmlns="http://www.w3.org/2000/svg" xmlns:xlink="http://www.w3.org/1999/xlink" x="0px" y="0px"
	 preserveAspectRatio="none" viewBox="0 0 905.4 327" enable-background="new 0 0 905.4 327" xml:space="preserve">
<path fill="#181E1D" d="M264.9,223l-73.7,1.3l-180.5-0.5l-2.4,38.6L139.8,252c28.2,17.7,68.6,17.8,104,0l655,2.6l-9.2-26.3
	L264.9,223z"/>
<polygon fill="#3E504E" points="19.2,210.7 25.3,210.1 29.1,174.9 20.4,176.3 "/>
<path fill="#D8CF59" d="M28.2,218.5c0,12.4,10.8,14.6,23.2,14.6h160.4c12.4,0,25.3-1.6,25.3-14.1v-70.4c0-12.4-10.4-16.4-22.9-16.4
	c-15.4-1.4-39.6-5.5-59.2-6.9c-50-3.6-105.6,1-105.6,1l-24.7,18.8L28.2,218.5z"/>
<g>
	<path fill="#D8CF59" d="M890.9,233.5c0,0-3.6,2.6-9.2,2.6l-718.2-5.3c-25.7-4.6-29.2-41.7-29.2-47.3l26.7-132.3
		c0-31.1,14.8-65.2,100.7-45.4l586.9,2l55.6,38.8L890.9,233.5z"/>
	<path fill="#EAB059" d="M859.3,236.2l-695.2-2.6c2.5,0,5.7-169.4,5.7-169.4c0-16.9,5.9-81,89.8-51.3l581.9,3.9l58.3,36.5
		C899.9,53.2,864.7,236.2,859.3,236.2z"/>
	<rect x="175.2" y="193.6" fill="#FED47D" width="710" height="2.8"/>
	<rect x="155.5" y="145.8" fill="#D8CF59" width="732.9" height="11.3"/>
	<rect x="155.5" y="173.9" fill="#D8CF59" width="732.9" height="11.3"/>
</g>
<g>
	<path fill="#FED47D" d="M180.8,238.7c0,0,5.6-90.1-50.7-90.1c-56.3,0-70.4,0-84.4,0c-14.1,0-19.7,7-19.7,22.5
		c0,15.5-5.3,55.9-5.3,55.9L180.8,238.7z"/>
	<path fill="#D3974F" d="M178,238.7c0,0,5.6-84.4-50.7-84.4c-56.3,0-67.5,0-81.6,0c-14.1,0-20.1,5.6-20.1,20.1
		c0,14.5-5.9,53.6-5.9,53.6L178,238.7z"/>
</g>
<g>
	<path fill="#D3974F" d="M125.3,154.9c50.1-8.6,91,40.5,91.1,93.4c0,0.4,0,0.7,0,1.1h-182c0-0.2,0-0.3,0-0.5
		C34.2,196.1,75.8,163.4,125.3,154.9z"/>
	<path fill="#FED47D" d="M207.6,249.4H43.2c1-46.7,37.2-84.4,82-84.5C170.1,164.8,206.6,202.4,207.6,249.4z"/>
	<path fill="#202827" d="M204.9,252.7L44.3,252c1-44.5,38.2-82.9,80.9-83.1C168,168.8,203.9,207.9,204.9,252.7z"/>
	<path fill="#181E1D" d="M58.5,251.6c0.1,38.9,30.2,70.3,67.1,70.1c36.9-0.1,66.8-31.7,66.7-70.6c-0.1-38.8-30.2-70.2-67.1-70.1
		C88.3,181.2,58.4,212.8,58.5,251.6z"/>
	<path fill="#4D4D4D" d="M125.2,185.8c-36.2,0.1-65.5,30.4-66.6,68.1c0-0.7-0.1-1.5-0.1-2.2c-0.1-38.8,29.8-70.4,66.7-70.6
		c37-0.1,67,31.3,67.1,70.1c0,0.8-0.1-0.4-0.2,0.4C190.9,213.8,161.5,185.7,125.2,185.8z"/>
	<path fill="#B3B3B3" d="M83.7,251.5c0.1,24.2,18.8,43.8,41.8,43.7c23-0.1,41.6-19.8,41.6-44c-0.1-24.2-18.8-43.8-41.8-43.7
		C102.3,207.6,83.6,227.3,83.7,251.5z"/>
	<path fill="#626367" d="M88.5,251.5c0.1,21.4,16.6,38.7,37,38.7c20.4-0.1,36.9-17.5,36.8-38.9c-0.1-21.4-16.6-38.8-37-38.7
		C104.9,212.7,88.4,230.1,88.5,251.5z"/>
	<path fill="#FFFFFF" d="M98,251.5c0,15.9,12.4,28.8,27.5,28.7c15.1,0,27.4-13,27.3-28.9c0-15.9-12.4-28.8-27.5-28.7
		C110.2,222.6,98,235.6,98,251.5z"/>
	<path fill="#A7A7A9" d="M107.6,251.5c0,10.4,8,18.7,17.9,18.7c9.9,0,17.8-8.5,17.8-18.8c0-10.4-8-18.7-17.9-18.7
		C115.5,232.7,107.6,241.1,107.6,251.5z"/>
	<path fill="#FFFFFF" d="M117.1,251.4c0,4.8,3.8,8.7,8.4,8.7c4.6,0,8.3-3.9,8.3-8.8c0-4.8-3.8-8.7-8.3-8.7
		C120.8,242.7,117.1,246.6,117.1,251.4z"/>
	<g>
		<g>
			<path fill="#202827" d="M151.1,251.3c0,2.1,0.5,3.8,1.1,3.8c0.6,0,1.1-1.7,1.1-3.8c0-2.1-0.5-3.7-1.2-3.7
				C151.6,247.6,151.1,249.3,151.1,251.3z"/>
		</g>
		<g>
			<path fill="#202827" d="M147.7,237.8c1,1.8,2.2,3,2.8,2.6c0.5-0.3,0.2-2.1-0.8-3.8c-1-1.8-2.2-3-2.8-2.6
				C146.3,234.3,146.7,236,147.7,237.8z"/>
		</g>
		<g>
			<path fill="#202827" d="M138.2,228c1.7,1,3.4,1.4,3.7,0.8c0.3-0.6-0.8-1.9-2.5-2.9c-1.7-1-3.4-1.4-3.7-0.8
				C135.4,225.6,136.5,226.9,138.2,228z"/>
		</g>
		<g>
			<path fill="#202827" d="M125.3,224.4c2,0,3.6-0.5,3.6-1.2c0-0.7-1.6-1.2-3.6-1.2c-2,0-3.6,0.5-3.6,1.2
				C121.8,223.9,123.4,224.4,125.3,224.4z"/>
		</g>
		<g>
			<path fill="#202827" d="M112.5,228c1.7-1,2.8-2.3,2.5-2.9c-0.3-0.6-1.9-0.2-3.7,0.9c-1.7,1-2.8,2.3-2.5,2.9
				C109.2,229.5,110.8,229.1,112.5,228z"/>
		</g>
		<g>
			<path fill="#202827" d="M103.1,238c1-1.8,1.3-3.5,0.8-3.9c-0.5-0.3-1.8,0.9-2.8,2.7c-1,1.8-1.3,3.5-0.8,3.9
				C100.9,241,102.1,239.8,103.1,238z"/>
		</g>
		<g>
			<path fill="#202827" d="M99.7,251.5c0-2.1-0.5-3.8-1.1-3.8c-0.6,0-1.1,1.7-1.1,3.8c0,2.1,0.5,3.8,1.2,3.8
				C99.2,255.3,99.7,253.6,99.7,251.5z"/>
		</g>
		<g>
			<path fill="#202827" d="M103.2,265c-1-1.8-2.2-3-2.8-2.6c-0.5,0.3-0.2,2.1,0.8,3.8c1,1.8,2.2,3,2.8,2.7
				C104.5,268.5,104.2,266.8,103.2,265z"/>
		</g>
		<g>
			<path fill="#202827" d="M112.6,274.9c-1.7-1-3.4-1.4-3.7-0.8c-0.3,0.6,0.8,1.9,2.5,2.9c1.7,1,3.4,1.4,3.7,0.8
				C115.5,277.2,114.3,275.9,112.6,274.9z"/>
		</g>
		<g>
			<path fill="#202827" d="M125.5,278.4c-2,0-3.6,0.5-3.6,1.2c0,0.7,1.6,1.2,3.6,1.2c2,0,3.6-0.6,3.6-1.2
				C129.1,279,127.5,278.4,125.5,278.4z"/>
		</g>
		<g>
			<path fill="#202827" d="M138.3,274.8c-1.7,1-2.8,2.4-2.5,2.9c0.3,0.6,2,0.2,3.7-0.8c1.7-1,2.8-2.4,2.5-2.9
				C141.7,273.4,140,273.7,138.3,274.8z"/>
		</g>
		<g>
			<path fill="#202827" d="M147.7,264.9c-1,1.8-1.3,3.5-0.8,3.9c0.5,0.3,1.8-0.9,2.8-2.7c1-1.8,1.3-3.5,0.8-3.9
				C149.9,261.9,148.7,263.1,147.7,264.9z"/>
		</g>
		<g>
			<path fill="#202827" d="M151.1,251.3c0,2.1,0.5,3.8,1.1,3.8c0.6,0,1.1-1.7,1.1-3.8c0-2.1-0.5-3.7-1.2-3.7
				C151.6,247.6,151.1,249.3,151.1,251.3z"/>
		</g>
		<g>
			<path fill="#202827" d="M147.7,237.8c1,1.8,2.2,3,2.8,2.6c0.5-0.3,0.2-2.1-0.8-3.8c-1-1.8-2.2-3-2.8-2.6
				C146.3,234.3,146.7,236,147.7,237.8z"/>
		</g>
		<g>
			<path fill="#202827" d="M138.2,228c1.7,1,3.4,1.4,3.7,0.8c0.3-0.6-0.8-1.9-2.5-2.9c-1.7-1-3.4-1.4-3.7-0.8
				C135.4,225.6,136.5,226.9,138.2,228z"/>
		</g>
		<g>
			<path fill="#202827" d="M125.3,224.4c2,0,3.6-0.5,3.6-1.2c0-0.7-1.6-1.2-3.6-1.2c-2,0-3.6,0.5-3.6,1.2
				C121.8,223.9,123.4,224.4,125.3,224.4z"/>
		</g>
		<g>
			<path fill="#202827" d="M112.5,228c1.7-1,2.8-2.3,2.5-2.9c-0.3-0.6-1.9-0.2-3.7,0.9c-1.7,1-2.8,2.3-2.5,2.9
				C109.2,229.5,110.8,229.1,112.5,228z"/>
		</g>
		<g>
			<path fill="#202827" d="M103.1,238c1-1.8,1.3-3.5,0.8-3.9c-0.5-0.3-1.8,0.9-2.8,2.7c-1,1.8-1.3,3.5-0.8,3.9
				C100.9,241,102.1,239.8,103.1,238z"/>
		</g>
		<g>
			<path fill="#202827" d="M99.7,251.5c0-2.1-0.5-3.8-1.1-3.8c-0.6,0-1.1,1.7-1.1,3.8c0,2.1,0.5,3.8,1.2,3.8
				C99.2,255.3,99.7,253.6,99.7,251.5z"/>
		</g>
		<g>
			<path fill="#202827" d="M103.2,265c-1-1.8-2.2-3-2.8-2.6c-0.5,0.3-0.2,2.1,0.8,3.8c1,1.8,2.2,3,2.8,2.7
				C104.5,268.5,104.2,266.8,103.2,265z"/>
		</g>
		<g>
			<path fill="#202827" d="M112.6,274.9c-1.7-1-3.4-1.4-3.7-0.8c-0.3,0.6,0.8,1.9,2.5,2.9c1.7,1,3.4,1.4,3.7,0.8
				C115.5,277.2,114.3,275.9,112.6,274.9z"/>
		</g>
		<g>
			<path fill="#202827" d="M125.5,278.4c-2,0-3.6,0.5-3.6,1.2c0,0.7,1.6,1.2,3.6,1.2c2,0,3.6-0.6,3.6-1.2
				C129.1,279,127.5,278.4,125.5,278.4z"/>
		</g>
		<g>
			<path fill="#202827" d="M138.3,274.8c-1.7,1-2.8,2.4-2.5,2.9c0.3,0.6,2,0.2,3.7-0.8c1.7-1,2.8-2.4,2.5-2.9
				C141.7,273.4,140,273.7,138.3,274.8z"/>
		</g>
		<g>
			<path fill="#202827" d="M147.7,264.9c-1,1.8-1.3,3.5-0.8,3.9c0.5,0.3,1.8-0.9,2.8-2.7c1-1.8,1.3-3.5,0.8-3.9
				C149.9,261.9,148.7,263.1,147.7,264.9z"/>
		</g>
		<g>
			<path fill="#202827" d="M151.1,251.3c0,2.1,0.5,3.8,1.1,3.8c0.6,0,1.1-1.7,1.1-3.8c0-2.1-0.5-3.7-1.2-3.7
				C151.6,247.6,151.1,249.3,151.1,251.3z"/>
		</g>
		<g>
			<path fill="#202827" d="M147.7,237.8c1,1.8,2.2,3,2.8,2.6c0.5-0.3,0.2-2.1-0.8-3.8c-1-1.8-2.2-3-2.8-2.6
				C146.3,234.3,146.7,236,147.7,237.8z"/>
		</g>
		<g>
			<path fill="#202827" d="M138.2,228c1.7,1,3.4,1.4,3.7,0.8c0.3-0.6-0.8-1.9-2.5-2.9c-1.7-1-3.4-1.4-3.7-0.8
				C135.4,225.6,136.5,226.9,138.2,228z"/>
		</g>
		<g>
			<path fill="#202827" d="M125.3,224.4c2,0,3.6-0.5,3.6-1.2c0-0.7-1.6-1.2-3.6-1.2c-2,0-3.6,0.5-3.6,1.2
				C121.8,223.9,123.4,224.4,125.3,224.4z"/>
		</g>
		<g>
			<path fill="#202827" d="M112.5,228c1.7-1,2.8-2.3,2.5-2.9c-0.3-0.6-1.9-0.2-3.7,0.9c-1.7,1-2.8,2.3-2.5,2.9
				C109.2,229.5,110.8,229.1,112.5,228z"/>
		</g>
		<g>
			<path fill="#202827" d="M103.1,238c1-1.8,1.3-3.5,0.8-3.9c-0.5-0.3-1.8,0.9-2.8,2.7c-1,1.8-1.3,3.5-0.8,3.9
				C100.9,241,102.1,239.8,103.1,238z"/>
		</g>
		<g>
			<path fill="#202827" d="M99.7,251.5c0-2.1-0.5-3.8-1.1-3.8c-0.6,0-1.1,1.7-1.1,3.8c0,2.1,0.5,3.8,1.2,3.8
				C99.2,255.3,99.7,253.6,99.7,251.5z"/>
		</g>
		<g>
			<path fill="#202827" d="M103.2,265c-1-1.8-2.2-3-2.8-2.6c-0.5,0.3-0.2,2.1,0.8,3.8c1,1.8,2.2,3,2.8,2.7
				C104.5,268.5,104.2,266.8,103.2,265z"/>
		</g>
		<g>
			<path fill="#202827" d="M112.6,274.9c-1.7-1-3.4-1.4-3.7-0.8c-0.3,0.6,0.8,1.9,2.5,2.9c1.7,1,3.4,1.4,3.7,0.8
				C115.5,277.2,114.3,275.9,112.6,274.9z"/>
		</g>
		<g>
			<path fill="#202827" d="M125.5,278.4c-2,0-3.6,0.5-3.6,1.2c0,0.7,1.6,1.2,3.6,1.2c2,0,3.6-0.6,3.6-1.2
				C129.1,279,127.5,278.4,125.5,278.4z"/>
		</g>
		<g>
			<path fill="#202827" d="M138.3,274.8c-1.7,1-2.8,2.4-2.5,2.9c0.3,0.6,2,0.2,3.7-0.8c1.7-1,2.8-2.4,2.5-2.9
				C141.7,273.4,140,273.7,138.3,274.8z"/>
		</g>
		<g>
			<path fill="#202827" d="M147.7,264.9c-1,1.8-1.3,3.5-0.8,3.9c0.5,0.3,1.8-0.9,2.8-2.7c1-1.8,1.3-3.5,0.8-3.9
				C149.9,261.9,148.7,263.1,147.7,264.9z"/>
		</g>
		<g>
			<path fill="#202827" d="M151.1,251.3c0,2.1,0.5,3.8,1.1,3.8c0.6,0,1.1-1.7,1.1-3.8c0-2.1-0.5-3.8-1.2-3.8
				C151.6,247.6,151.1,249.3,151.1,251.3z"/>
		</g>
	</g>
</g>
<g>
	<path fill="#FED47D" d="M821.4,240.5l-192.6,3.2c4.3-44.4,56.3-90.6,103.7-90.8C780,152.8,823.6,195.8,821.4,240.5z"/>
	<path fill="#202827" d="M813.7,249.4h-166c1.1-47.8,37.6-86.2,82.8-86.3C775.7,162.9,812.6,201.4,813.7,249.4z"/>
	<path fill="#181E1D" d="M659.8,251.8c0.1,41.7,31.9,75.4,71.1,75.2c39.1-0.1,70.7-34,70.6-75.7c-0.1-41.7-31.9-75.3-71.1-75.2
		C691.3,176.2,659.7,210.1,659.8,251.8z"/>
	<path fill="#4D4D4D" d="M730.5,181.1c-38.3,0.1-69.3,32.6-70.5,73c0-0.8-0.1-1.6-0.1-2.4c-0.1-41.7,31.5-75.5,70.6-75.7
		c39.1-0.1,70.9,33.5,71.1,75.2c0,0.9-0.1,1.8-0.1,2.7C800.1,213.4,768.8,181,730.5,181.1z"/>
	<path fill="#B3B3B3" d="M686.5,251.7c0.1,26,19.9,47,44.3,46.9c24.4-0.1,44.1-21.2,44-47.2c-0.1-26-19.9-46.9-44.3-46.9
		C706.2,204.6,686.4,225.7,686.5,251.7z"/>
	<path fill="#626367" d="M691.6,251.7c0.1,23,17.6,41.6,39.2,41.5c21.6-0.1,39-18.8,39-41.8c-0.1-23-17.6-41.6-39.2-41.5
		C709,210,691.5,228.7,691.6,251.7z"/>
	<path fill="#FFFFFF" d="M701.6,251.6c0,17.1,13.1,30.9,29.1,30.8c16-0.1,29-13.9,28.9-31c0-17.1-13.1-30.9-29.1-30.8
		C714.5,220.7,701.6,234.6,701.6,251.6z"/>
	<path fill="#A7A7A9" d="M711.8,251.6c0,11.1,8.5,20.1,18.9,20.1c10.4,0,18.9-9.1,18.8-20.2c0-11.1-8.5-20.1-18.9-20
		C720.2,231.5,711.7,240.5,711.8,251.6z"/>
	<path fill="#FFFFFF" d="M721.9,251.6c0,5.2,4,9.4,8.8,9.3c4.9,0,8.8-4.2,8.8-9.4c0-5.2-4-9.4-8.8-9.4
		C725.8,242.2,721.8,246.4,721.9,251.6z"/>
	<g>
		<g>
			<path fill="#202827" d="M757.9,251.5c0,2.2,0.5,4,1.2,4c0.7,0,1.2-1.8,1.2-4c0-2.2-0.6-4-1.2-4
				C758.4,247.4,757.9,249.2,757.9,251.5z"/>
		</g>
		<g>
			<path fill="#202827" d="M754.2,237c1,1.9,2.3,3.2,2.9,2.8c0.6-0.3,0.2-2.2-0.8-4.1c-1.1-1.9-2.4-3.2-2.9-2.8
				C752.8,233.2,753.1,235.1,754.2,237z"/>
		</g>
		<g>
			<path fill="#202827" d="M744.2,226.4c1.8,1.1,3.6,1.5,3.9,0.9c0.3-0.6-0.9-2-2.7-3.1c-1.8-1.1-3.6-1.5-3.9-0.9
				C741.2,223.9,742.4,225.3,744.2,226.4z"/>
		</g>
		<g>
			<path fill="#202827" d="M730.6,222.5c2.1,0,3.8-0.6,3.8-1.3c0-0.7-1.7-1.3-3.8-1.3c-2.1,0-3.8,0.6-3.8,1.3
				C726.8,222,728.5,222.6,730.6,222.5z"/>
		</g>
		<g>
			<path fill="#202827" d="M717,226.5c1.8-1.1,3-2.5,2.7-3.1c-0.3-0.6-2.1-0.2-3.9,0.9c-1.8,1.1-3,2.5-2.6,3.1
				C713.4,228,715.2,227.6,717,226.5z"/>
		</g>
		<g>
			<path fill="#202827" d="M707.1,237.1c1-1.9,1.4-3.8,0.8-4.1c-0.6-0.4-1.9,0.9-2.9,2.9c-1,1.9-1.4,3.8-0.8,4.1
				C704.7,240.3,706,239.1,707.1,237.1z"/>
		</g>
		<g>
			<path fill="#202827" d="M703.4,251.6c0-2.2-0.5-4-1.2-4c-0.7,0-1.2,1.8-1.2,4c0,2.2,0.6,4,1.2,4
				C702.9,255.7,703.5,253.9,703.4,251.6z"/>
		</g>
		<g>
			<path fill="#202827" d="M707.1,266.1c-1-1.9-2.4-3.2-2.9-2.8c-0.6,0.4-0.2,2.2,0.9,4.1c1,1.9,2.4,3.2,2.9,2.8
				C708.6,269.9,708.2,268,707.1,266.1z"/>
		</g>
		<g>
			<path fill="#202827" d="M717.1,276.7c-1.8-1.1-3.6-1.5-3.9-0.9c-0.3,0.6,0.9,2,2.7,3.1c1.8,1.1,3.5,1.5,3.9,0.9
				C720.1,279.2,718.9,277.8,717.1,276.7z"/>
		</g>
		<g>
			<path fill="#202827" d="M730.8,280.5c-2.1,0-3.8,0.6-3.8,1.3c0,0.7,1.7,1.3,3.8,1.3c2.1,0,3.8-0.6,3.8-1.3
				C734.5,281.1,732.8,280.5,730.8,280.5z"/>
		</g>
		<g>
			<path fill="#202827" d="M744.3,276.6c-1.8,1.1-3,2.5-2.7,3.1c0.3,0.6,2.1,0.2,3.9-0.9c1.8-1.1,3-2.5,2.7-3.1
				C747.9,275.1,746.1,275.5,744.3,276.6z"/>
		</g>
		<g>
			<path fill="#202827" d="M754.3,266c-1,1.9-1.4,3.8-0.8,4.1c0.6,0.4,1.9-0.9,2.9-2.9c1-1.9,1.4-3.8,0.8-4.1
				C756.6,262.8,755.3,264,754.3,266z"/>
		</g>
		<g>
			<path fill="#202827" d="M757.9,251.5c0,2.2,0.5,4,1.2,4c0.7,0,1.2-1.8,1.2-4c0-2.2-0.6-4-1.2-4
				C758.4,247.4,757.9,249.2,757.9,251.5z"/>
		</g>
		<g>
			<path fill="#202827" d="M754.2,237c1,1.9,2.3,3.2,2.9,2.8c0.6-0.3,0.2-2.2-0.8-4.1c-1.1-1.9-2.4-3.2-2.9-2.8
				C752.8,233.2,753.1,235.1,754.2,237z"/>
		</g>
		<g>
			<path fill="#202827" d="M744.2,226.4c1.8,1.1,3.6,1.5,3.9,0.9c0.3-0.6-0.9-2-2.7-3.1c-1.8-1.1-3.6-1.5-3.9-0.9
				C741.2,223.9,742.4,225.3,744.2,226.4z"/>
		</g>
		<g>
			<path fill="#202827" d="M730.6,222.5c2.1,0,3.8-0.6,3.8-1.3c0-0.7-1.7-1.3-3.8-1.3c-2.1,0-3.8,0.6-3.8,1.3
				C726.8,222,728.5,222.6,730.6,222.5z"/>
		</g>
		<g>
			<path fill="#202827" d="M717,226.5c1.8-1.1,3-2.5,2.7-3.1c-0.3-0.6-2.1-0.2-3.9,0.9c-1.8,1.1-3,2.5-2.6,3.1
				C713.4,228,715.2,227.6,717,226.5z"/>
		</g>
		<g>
			<path fill="#202827" d="M707.1,237.1c1-1.9,1.4-3.8,0.8-4.1c-0.6-0.4-1.9,0.9-2.9,2.9c-1,1.9-1.4,3.8-0.8,4.1
				C704.7,240.3,706,239.1,707.1,237.1z"/>
		</g>
		<g>
			<path fill="#202827" d="M703.4,251.6c0-2.2-0.5-4-1.2-4c-0.7,0-1.2,1.8-1.2,4c0,2.2,0.6,4,1.2,4
				C702.9,255.7,703.5,253.9,703.4,251.6z"/>
		</g>
		<g>
			<path fill="#202827" d="M707.1,266.1c-1-1.9-2.4-3.2-2.9-2.8c-0.6,0.4-0.2,2.2,0.9,4.1c1,1.9,2.4,3.2,2.9,2.8
				C708.6,269.9,708.2,268,707.1,266.1z"/>
		</g>
		<g>
			<path fill="#202827" d="M717.1,276.7c-1.8-1.1-3.6-1.5-3.9-0.9c-0.3,0.6,0.9,2,2.7,3.1c1.8,1.1,3.5,1.5,3.9,0.9
				C720.1,279.2,718.9,277.8,717.1,276.7z"/>
		</g>
		<g>
			<path fill="#202827" d="M730.8,280.5c-2.1,0-3.8,0.6-3.8,1.3c0,0.7,1.7,1.3,3.8,1.3c2.1,0,3.8-0.6,3.8-1.3
				C734.5,281.1,732.8,280.5,730.8,280.5z"/>
		</g>
		<g>
			<path fill="#202827" d="M744.3,276.6c-1.8,1.1-3,2.5-2.7,3.1c0.3,0.6,2.1,0.2,3.9-0.9c1.8-1.1,3-2.5,2.7-3.1
				C747.9,275.1,746.1,275.5,744.3,276.6z"/>
		</g>
		<g>
			<path fill="#202827" d="M754.3,266c-1,1.9-1.4,3.8-0.8,4.1c0.6,0.4,1.9-0.9,2.9-2.9c1-1.9,1.4-3.8,0.8-4.1
				C756.6,262.8,755.3,264,754.3,266z"/>
		</g>
		<g>
			<path fill="#202827" d="M757.9,251.5c0,2.2,0.5,4,1.2,4c0.7,0,1.2-1.8,1.2-4c0-2.2-0.6-4-1.2-4
				C758.4,247.4,757.9,249.2,757.9,251.5z"/>
		</g>
		<g>
			<path fill="#202827" d="M754.2,237c1,1.9,2.3,3.2,2.9,2.8c0.6-0.3,0.2-2.2-0.8-4.1c-1.1-1.9-2.4-3.2-2.9-2.8
				C752.8,233.2,753.1,235.1,754.2,237z"/>
		</g>
		<g>
			<path fill="#202827" d="M744.2,226.4c1.8,1.1,3.6,1.5,3.9,0.9c0.3-0.6-0.9-2-2.7-3.1c-1.8-1.1-3.6-1.5-3.9-0.9
				C741.2,223.9,742.4,225.3,744.2,226.4z"/>
		</g>
		<g>
			<path fill="#202827" d="M730.6,222.5c2.1,0,3.8-0.6,3.8-1.3c0-0.7-1.7-1.3-3.8-1.3c-2.1,0-3.8,0.6-3.8,1.3
				C726.8,222,728.5,222.6,730.6,222.5z"/>
		</g>
		<g>
			<path fill="#202827" d="M717,226.5c1.8-1.1,3-2.5,2.7-3.1c-0.3-0.6-2.1-0.2-3.9,0.9c-1.8,1.1-3,2.5-2.6,3.1
				C713.4,228,715.2,227.6,717,226.5z"/>
		</g>
		<g>
			<path fill="#202827" d="M707.1,237.1c1-1.9,1.4-3.8,0.8-4.1c-0.6-0.4-1.9,0.9-2.9,2.9c-1,1.9-1.4,3.8-0.8,4.1
				C704.7,240.3,706,239.1,707.1,237.1z"/>
		</g>
		<g>
			<path fill="#202827" d="M703.4,251.6c0-2.2-0.5-4-1.2-4c-0.7,0-1.2,1.8-1.2,4c0,2.2,0.6,4,1.2,4
				C702.9,255.7,703.5,253.9,703.4,251.6z"/>
		</g>
		<g>
			<path fill="#202827" d="M707.1,266.1c-1-1.9-2.4-3.2-2.9-2.8c-0.6,0.4-0.2,2.2,0.9,4.1c1,1.9,2.4,3.2,2.9,2.8
				C708.6,269.9,708.2,268,707.1,266.1z"/>
		</g>
		<g>
			<path fill="#202827" d="M717.1,276.7c-1.8-1.1-3.6-1.5-3.9-0.9c-0.3,0.6,0.9,2,2.7,3.1c1.8,1.1,3.5,1.5,3.9,0.9
				C720.1,279.2,718.9,277.8,717.1,276.7z"/>
		</g>
		<g>
			<path fill="#202827" d="M730.8,280.5c-2.1,0-3.8,0.6-3.8,1.3c0,0.7,1.7,1.3,3.8,1.3c2.1,0,3.8-0.6,3.8-1.3
				C734.5,281.1,732.8,280.5,730.8,280.5z"/>
		</g>
		<g>
			<path fill="#202827" d="M744.3,276.6c-1.8,1.1-3,2.5-2.7,3.1c0.3,0.6,2.1,0.2,3.9-0.9c1.8-1.1,3-2.5,2.7-3.1
				C747.9,275.1,746.1,275.5,744.3,276.6z"/>
		</g>
		<g>
			<path fill="#202827" d="M754.3,266c-1,1.9-1.4,3.8-0.8,4.1c0.6,0.4,1.9-0.9,2.9-2.9c1-1.9,1.4-3.8,0.8-4.1
				C756.6,262.8,755.3,264,754.3,266z"/>
		</g>
		<g>
			<path fill="#202827" d="M757.9,251.5c0,2.2,0.5,4,1.2,4c0.7,0,1.2-1.8,1.2-4c0-2.2-0.6-4-1.2-4
				C758.4,247.4,757.9,249.2,757.9,251.5z"/>
		</g>
	</g>
</g>
<polygon fill="#202827" points="0,251.7 47.6,251.3 47.4,211.2 9.9,217.1 "/>
<rect x="265.3" y="173.9" fill="#202827" width="2.8" height="11.3"/>
<rect x="265.3" y="145.8" fill="#202827" width="2.8" height="11.3"/>
<g>
	<g>
		<g>
			<polygon fill="#C36659" points="275.8,201.6 247.3,201.6 228.2,182.8 228.2,154.6 247.3,135.9 275.8,135.9 294.9,154.6 
				294.9,182.8 275.8,201.6 			"/>
			<path fill="#FFFFFF" d="M276.5,134.2l20,19.7v29.6l-20,19.7h-30l-20-19.7v-29.6l20-19.7H276.5z M275.1,137.5H248l-18.1,17.8v26.8
				l18.1,17.8h27.2l18-17.8v-26.8L275.1,137.5L275.1,137.5z"/>
		</g>
	</g>
</g>
<polygon fill="#202827" points="867.2,241.4 905.4,246.7 904.8,209.2 875.2,214.2 "/>
<g>
	<path fill="#FFFFFF" d="M234.9,173.4c-0.4-0.2-0.6-0.7-0.6-1.2c0-0.8,0.7-1.4,1.5-1.4c0.4,0,0.7,0.1,0.9,0.3
		c1.1,0.8,2.3,1.3,3.7,1.3c1.3,0,2.1-0.5,2.1-1.3v0c0-0.8-0.5-1.2-2.9-1.8c-2.9-0.7-4.8-1.5-4.8-4.3v0c0-2.6,2.1-4.3,5-4.3
		c1.8,0,3.3,0.4,4.6,1.3c0.4,0.2,0.7,0.6,0.7,1.2c0,0.8-0.7,1.4-1.5,1.4c-0.3,0-0.6-0.1-0.8-0.2c-1.1-0.6-2-1-3-1
		c-1.2,0-1.9,0.5-1.9,1.2v0c0,0.9,0.6,1.2,3.1,1.9c2.9,0.8,4.6,1.8,4.6,4.3v0c0,2.8-2.2,4.4-5.3,4.4
		C238.5,175.1,236.5,174.5,234.9,173.4z"/>
	<path fill="#FFFFFF" d="M251.4,163.6h-3c-0.8,0-1.5-0.6-1.5-1.4c0-0.8,0.7-1.4,1.5-1.4h9.3c0.8,0,1.5,0.7,1.5,1.4
		c0,0.8-0.7,1.4-1.5,1.4h-3v9.9c0,0.9-0.7,1.6-1.6,1.6c-0.9,0-1.6-0.7-1.6-1.6V163.6z"/>
	<path fill="#FFFFFF" d="M260.2,167.8L260.2,167.8c0-4.1,3.2-7.4,7.7-7.4c4.4,0,7.6,3.3,7.6,7.3v0c0,4-3.2,7.3-7.7,7.3
		C263.4,175.1,260.2,171.9,260.2,167.8z M272.2,167.8L272.2,167.8c0-2.5-1.8-4.5-4.4-4.5c-2.6,0-4.3,2-4.3,4.4v0
		c0,2.4,1.8,4.5,4.4,4.5C270.4,172.2,272.2,170.3,272.2,167.8z"/>
	<path fill="#FFFFFF" d="M278.3,162.2c0-0.9,0.7-1.6,1.6-1.6h4.3c3.4,0,5.5,2,5.5,4.9v0c0,3.3-2.6,5-5.8,5h-2.4v2.8
		c0,0.9-0.7,1.6-1.6,1.6c-0.9,0-1.6-0.7-1.6-1.6V162.2z M284,167.8c1.6,0,2.5-0.9,2.5-2.2v0c0-1.4-1-2.2-2.6-2.2h-2.5v4.3H284z"/>
</g>
<path fill="#283332" d="M155,51.3l7.9,1c0,0,4-34.6,26.7-47.4C189.6,4.9,151.1,12.8,155,51.3z"/>
<path fill="#D3974F" d="M170.8,52.3l727.1-1l-31.6-17.8l-692.5,3C173.8,36.5,169.8,36.5,170.8,52.3z"/>
<path fill="#C8C8C1" d="M159,58.2l-12.8,66.2h-16.8C129.3,124.3,152.1,72,159,58.2z"/>
<path fill="#D3974F" d="M54.2,140.2H40.1c-3.1,0-5.6-2.5-5.6-5.6v-8c1.9,2.9,3.6,4.6,4.6,4.2c1.6-0.7,0.5-6.7-2.4-13.5
	c-2.9-6.8-6.5-11.7-8.1-11c-1.6,0.7-0.5,6.7,2.4,13.5c0.2,0.6,0.5,1.1,0.8,1.7v13.2c0,4.7,3.8,8.4,8.4,8.4h14.1
	c3.1,0,5.6,2.5,5.6,5.6h2.8C62.6,143.9,58.9,140.2,54.2,140.2z"/>
<g>
	<path fill="#C8C8C1" d="M202.7,124.6c-8.1,0-14.7-5.5-14.7-12.3V52c0-6.8,6.6-12.3,14.7-12.3h14.8c8.1,0,14.7,5.5,14.7,12.3v60.3
		c0,6.8-6.6,12.3-14.7,12.3H202.7z"/>
	<path opacity="0.2" fill="#7395A4" d="M206.1,120.1c-7.3,0-13.1-4.9-13.1-11v-54c0-6.1,5.9-11,13.1-11h7.3c7.3,0,13.1,4.9,13.1,11
		v54c0,6.1-5.9,11-13.1,11H206.1z"/>
</g>
<rect x="207.7" y="84.9" fill="#C8C8C1" width="3.8" height="36.4"/>
<rect x="189.2" y="79.8" fill="#C8C8C1" width="41.3" height="8.3"/>
</svg>
