<?xml version="1.0" encoding="utf-8"?>
<!-- Generator: Adobe Illustrator 18.1.0, SVG Export Plug-In . SVG Version: 6.00 Build 0)  -->
<!DOCTYPE svg PUBLIC "-//W3C//DTD SVG 1.1//EN" "http://www.w3.org/Graphics/SVG/1.1/DTD/svg11.dtd">
<svg version="1.1" id="Layer_1" xmlns="http://www.w3.org/2000/svg" xmlns:xlink="http://www.w3.org/1999/xlink" x="0px" y="0px"
	 viewBox="96 0 1728 1080" enable-background="new 96 0 1728 1080" xml:space="preserve">
<g>
	<path fill="#D6D6D6" d="M1884.3,957.6c0,94.2-70.3,169.5-157.2,169.5H192.2C105.3,1127.1,35,1051,35,957.6V122.4
		C35.7,29,106-47.1,192.2-47.1h1534.9c86.9,0,157.2,76.1,157.2,169.5L1884.3,957.6L1884.3,957.6z"/>
	<path opacity="0.2" fill="#858585" enable-background="new    " d="M35.7,772.9v201.4c0,84.7,70.3,153.6,157.2,153.6h1534.9
		c86.9,0,157.2-68.8,157.2-153.6v-754c0-6.5-0.7-12.3-1.4-18.1c-21-0.7-42-1.4-63-1.4C1376.5,199.9,228.4,432.4,35.7,772.9z"/>
</g>
</svg>
